<?xml version="1.0" standalone="no"?>
<!DOCTYPE svg PUBLIC "-//W3C//DTD SVG 20010904//EN"
 "http://www.w3.org/TR/2001/REC-SVG-20010904/DTD/svg10.dtd">
<svg version="1.0" xmlns="http://www.w3.org/2000/svg"
 width="1280.000000pt" height="720.000000pt" viewBox="0 0 1280.000000 720.000000"
 preserveAspectRatio="xMidYMid meet">

<g transform="translate(0.000000,720.000000) scale(0.100000,-0.100000)"
fill="#000000" stroke="none">
<path d="M0 3600 l0 -3600 6400 0 6400 0 0 3600 0 3600 -6400 0 -6400 0 0
-3600z m4315 2390 c559 -52 1056 -235 1449 -533 184 -139 398 -379 527 -589
178 -290 306 -685 334 -1028 3 -41 8 -96 11 -122 l6 -48 -1304 -2 -1303 -3 0
-135 0 -135 1295 -3 c712 -1 1298 -6 1302 -10 11 -11 -8 -231 -33 -372 -118
-669 -458 -1191 -1006 -1544 -277 -178 -638 -312 -1018 -376 -394 -67 -929
-65 -1290 5 -224 43 -374 85 -545 152 -553 217 -970 580 -1217 1063 -66 129
-78 156 -135 320 -48 141 -90 322 -115 495 -28 198 -25 628 5 824 35 225 73
372 145 561 212 555 646 1000 1217 1247 329 143 681 220 1125 247 94 6 429 -3
550 -14z m6270 -148 c72 -12 162 -31 200 -43 290 -90 552 -338 660 -623 59
-159 69 -217 69 -411 -1 -163 -3 -190 -27 -280 -100 -373 -392 -670 -750 -764
-196 -51 -219 -52 -2082 -49 l-1730 3 -2 1085 c-1 801 1 1088 10 1098 10 12
284 13 1767 9 1705 -5 1759 -5 1885 -25z m-233 -2462 c288 -15 428 -45 582
-122 228 -114 411 -316 507 -555 62 -157 73 -221 73 -423 0 -168 -2 -194 -27
-283 -109 -406 -426 -706 -823 -782 -177 -34 -314 -36 -2034 -33 l-1705 3 -3
1090 c-1 600 0 1096 3 1103 3 9 338 12 1627 12 893 0 1703 -5 1800 -10z"/>
</g>
</svg>
